ISO-10303-21;
HEADER;
/* Generated by software containing ST-Developer
 * from STEP Tools, Inc. (www.steptools.com) 
 */
/* OPTION: using custom renumber hook */

FILE_DESCRIPTION(
/* description */ ('STEP AP242 Edition 2',
'CAx-IF Rec.Pracs.---Representation and Presentation of Product Manufa
cturing Information (PMI)---4.0---2014-10-13',
'CAx-IF Rec.Pracs.---3D Tessellated Geometry---0.4---2014-09-14','2;1',
'CAx-IF Rec.Pracs.---User Defined Attributes---1.5---2016-08-15'),
/* implementation_level */ '2;1');

FILE_NAME(
/* name */ 'Part Studio 1',
/* time_stamp */ '2026-05-10T00:00:12Z',
/* author */ (''),
/* organization */ (''),
/* preprocessor_version */ 'ST-DEVELOPER v20',
/* originating_system */ 'ONSHAPE BY PTC INC, 1.214',
/* authorisation */ '  ');

FILE_SCHEMA (('AP242_MANAGED_MODEL_BASED_3D_ENGINEERING_MIM_LF { 1 0 10303 442 3 1 4 }'));
ENDSEC;

DATA;
#10=SHAPE_REPRESENTATION_RELATIONSHIP('','',#367,#11);
#11=ADVANCED_BREP_SHAPE_REPRESENTATION('',(#365),#627);
#12=CONICAL_SURFACE('',#393,0.0125,0.785398163397448);
#13=B_SPLINE_CURVE_WITH_KNOTS('',3,(#565,#566,#567,#568),.UNSPECIFIED.,
 .F.,.F.,(4,4),(0.00362739096823259,0.00582216045293671),.UNSPECIFIED.);
#14=B_SPLINE_CURVE_WITH_KNOTS('',3,(#570,#571,#572,#573),.UNSPECIFIED.,
 .F.,.F.,(4,4),(0.00147436928910608,0.00366913877380548),.UNSPECIFIED.);
#15=B_SPLINE_CURVE_WITH_KNOTS('',3,(#593,#594,#595,#596),.UNSPECIFIED.,
 .F.,.F.,(4,4),(0.,0.00475416148687577),.UNSPECIFIED.);
#16=B_SPLINE_CURVE_WITH_KNOTS('',3,(#597,#598,#599,#600),.UNSPECIFIED.,
 .F.,.F.,(4,4),(9.73229944478264E-16,0.00475416148687081),.UNSPECIFIED.);
#17=PLANE('',#376);
#18=PLANE('',#381);
#19=PLANE('',#387);
#20=PLANE('',#388);
#21=PLANE('',#389);
#22=PLANE('',#403);
#23=PLANE('',#404);
#24=PLANE('',#405);
#25=PLANE('',#406);
#26=PLANE('',#407);
#27=ELLIPSE('',#371,0.0106066017177982,0.0075);
#28=ELLIPSE('',#395,0.0106066017177982,0.0075);
#29=CIRCLE('',#370,0.0075);
#30=CIRCLE('',#372,0.0075);
#31=CIRCLE('',#374,0.0125);
#32=CIRCLE('',#375,0.0125);
#33=CIRCLE('',#377,0.004);
#34=CIRCLE('',#378,0.0016);
#35=CIRCLE('',#379,0.0016);
#36=CIRCLE('',#380,0.0135);
#37=CIRCLE('',#382,0.004);
#38=CIRCLE('',#383,0.0016);
#39=CIRCLE('',#384,0.0016);
#40=CIRCLE('',#385,0.0075);
#41=CIRCLE('',#386,0.004);
#42=CIRCLE('',#390,0.0075);
#43=CIRCLE('',#391,0.0175);
#44=CIRCLE('',#392,0.006);
#45=CIRCLE('',#400,0.004);
#46=CIRCLE('',#402,0.006);
#47=ORIENTED_EDGE('',*,*,#143,.F.);
#48=ORIENTED_EDGE('',*,*,#144,.F.);
#49=ORIENTED_EDGE('',*,*,#145,.T.);
#50=ORIENTED_EDGE('',*,*,#146,.T.);
#51=ORIENTED_EDGE('',*,*,#147,.T.);
#52=ORIENTED_EDGE('',*,*,#148,.F.);
#53=ORIENTED_EDGE('',*,*,#149,.F.);
#54=ORIENTED_EDGE('',*,*,#150,.T.);
#55=ORIENTED_EDGE('',*,*,#151,.T.);
#56=ORIENTED_EDGE('',*,*,#152,.F.);
#57=ORIENTED_EDGE('',*,*,#153,.F.);
#58=ORIENTED_EDGE('',*,*,#154,.F.);
#59=ORIENTED_EDGE('',*,*,#149,.T.);
#60=ORIENTED_EDGE('',*,*,#155,.F.);
#61=ORIENTED_EDGE('',*,*,#156,.T.);
#62=ORIENTED_EDGE('',*,*,#157,.F.);
#63=ORIENTED_EDGE('',*,*,#158,.F.);
#64=ORIENTED_EDGE('',*,*,#159,.F.);
#65=ORIENTED_EDGE('',*,*,#160,.F.);
#66=ORIENTED_EDGE('',*,*,#161,.F.);
#67=ORIENTED_EDGE('',*,*,#162,.T.);
#68=ORIENTED_EDGE('',*,*,#163,.F.);
#69=ORIENTED_EDGE('',*,*,#164,.F.);
#70=ORIENTED_EDGE('',*,*,#147,.F.);
#71=ORIENTED_EDGE('',*,*,#165,.F.);
#72=ORIENTED_EDGE('',*,*,#151,.F.);
#73=ORIENTED_EDGE('',*,*,#166,.T.);
#74=ORIENTED_EDGE('',*,*,#146,.F.);
#75=ORIENTED_EDGE('',*,*,#167,.T.);
#76=ORIENTED_EDGE('',*,*,#168,.T.);
#77=ORIENTED_EDGE('',*,*,#155,.T.);
#78=ORIENTED_EDGE('',*,*,#148,.T.);
#79=ORIENTED_EDGE('',*,*,#165,.T.);
#80=ORIENTED_EDGE('',*,*,#169,.T.);
#81=ORIENTED_EDGE('',*,*,#170,.T.);
#82=ORIENTED_EDGE('',*,*,#171,.T.);
#83=ORIENTED_EDGE('',*,*,#166,.F.);
#84=ORIENTED_EDGE('',*,*,#150,.F.);
#85=ORIENTED_EDGE('',*,*,#157,.T.);
#86=ORIENTED_EDGE('',*,*,#172,.T.);
#87=ORIENTED_EDGE('',*,*,#173,.T.);
#88=ORIENTED_EDGE('',*,*,#174,.T.);
#89=ORIENTED_EDGE('',*,*,#175,.T.);
#90=ORIENTED_EDGE('',*,*,#144,.T.);
#91=ORIENTED_EDGE('',*,*,#176,.F.);
#92=ORIENTED_EDGE('',*,*,#177,.F.);
#93=ORIENTED_EDGE('',*,*,#178,.T.);
#94=ORIENTED_EDGE('',*,*,#174,.F.);
#95=ORIENTED_EDGE('',*,*,#179,.T.);
#96=ORIENTED_EDGE('',*,*,#169,.F.);
#97=ORIENTED_EDGE('',*,*,#156,.F.);
#98=ORIENTED_EDGE('',*,*,#168,.F.);
#99=ORIENTED_EDGE('',*,*,#180,.T.);
#100=ORIENTED_EDGE('',*,*,#172,.F.);
#101=ORIENTED_EDGE('',*,*,#181,.T.);
#102=ORIENTED_EDGE('',*,*,#161,.T.);
#103=ORIENTED_EDGE('',*,*,#171,.F.);
#104=ORIENTED_EDGE('',*,*,#182,.T.);
#105=ORIENTED_EDGE('',*,*,#160,.T.);
#106=ORIENTED_EDGE('',*,*,#154,.T.);
#107=ORIENTED_EDGE('',*,*,#159,.T.);
#108=ORIENTED_EDGE('',*,*,#153,.T.);
#109=ORIENTED_EDGE('',*,*,#158,.T.);
#110=ORIENTED_EDGE('',*,*,#152,.T.);
#111=ORIENTED_EDGE('',*,*,#183,.T.);
#112=ORIENTED_EDGE('',*,*,#163,.T.);
#113=ORIENTED_EDGE('',*,*,#184,.F.);
#114=ORIENTED_EDGE('',*,*,#185,.T.);
#115=ORIENTED_EDGE('',*,*,#177,.T.);
#116=ORIENTED_EDGE('',*,*,#186,.T.);
#117=ORIENTED_EDGE('',*,*,#187,.F.);
#118=ORIENTED_EDGE('',*,*,#188,.F.);
#119=ORIENTED_EDGE('',*,*,#189,.F.);
#120=ORIENTED_EDGE('',*,*,#185,.F.);
#121=ORIENTED_EDGE('',*,*,#190,.T.);
#122=ORIENTED_EDGE('',*,*,#187,.T.);
#123=ORIENTED_EDGE('',*,*,#188,.T.);
#124=ORIENTED_EDGE('',*,*,#190,.F.);
#125=ORIENTED_EDGE('',*,*,#184,.T.);
#126=ORIENTED_EDGE('',*,*,#162,.F.);
#127=ORIENTED_EDGE('',*,*,#181,.F.);
#128=ORIENTED_EDGE('',*,*,#178,.F.);
#129=ORIENTED_EDGE('',*,*,#176,.T.);
#130=ORIENTED_EDGE('',*,*,#143,.T.);
#131=ORIENTED_EDGE('',*,*,#164,.T.);
#132=ORIENTED_EDGE('',*,*,#183,.F.);
#133=ORIENTED_EDGE('',*,*,#189,.T.);
#134=ORIENTED_EDGE('',*,*,#186,.F.);
#135=ORIENTED_EDGE('',*,*,#179,.F.);
#136=ORIENTED_EDGE('',*,*,#173,.F.);
#137=ORIENTED_EDGE('',*,*,#182,.F.);
#138=ORIENTED_EDGE('',*,*,#170,.F.);
#139=ORIENTED_EDGE('',*,*,#180,.F.);
#140=ORIENTED_EDGE('',*,*,#167,.F.);
#141=ORIENTED_EDGE('',*,*,#145,.F.);
#142=ORIENTED_EDGE('',*,*,#175,.F.);
#143=EDGE_CURVE('',#191,#192,#225,.T.);
#144=EDGE_CURVE('',#193,#191,#29,.T.);
#145=EDGE_CURVE('',#193,#194,#27,.T.);
#146=EDGE_CURVE('',#194,#195,#226,.T.);
#147=EDGE_CURVE('',#195,#192,#30,.T.);
#148=EDGE_CURVE('',#196,#197,#227,.T.);
#149=EDGE_CURVE('',#198,#196,#31,.T.);
#150=EDGE_CURVE('',#198,#199,#228,.T.);
#151=EDGE_CURVE('',#199,#197,#32,.T.);
#152=EDGE_CURVE('',#200,#200,#33,.T.);
#153=EDGE_CURVE('',#201,#201,#34,.T.);
#154=EDGE_CURVE('',#202,#202,#35,.T.);
#155=EDGE_CURVE('',#203,#196,#229,.T.);
#156=EDGE_CURVE('',#203,#204,#36,.T.);
#157=EDGE_CURVE('',#198,#204,#230,.T.);
#158=EDGE_CURVE('',#205,#205,#37,.F.);
#159=EDGE_CURVE('',#206,#206,#38,.F.);
#160=EDGE_CURVE('',#207,#207,#39,.F.);
#161=EDGE_CURVE('',#208,#209,#40,.T.);
#162=EDGE_CURVE('',#208,#210,#231,.T.);
#163=EDGE_CURVE('',#211,#210,#41,.F.);
#164=EDGE_CURVE('',#192,#211,#232,.T.);
#165=EDGE_CURVE('',#197,#195,#233,.T.);
#166=EDGE_CURVE('',#199,#209,#234,.T.);
#167=EDGE_CURVE('',#194,#212,#235,.T.);
#168=EDGE_CURVE('',#212,#203,#13,.T.);
#169=EDGE_CURVE('',#204,#213,#14,.T.);
#170=EDGE_CURVE('',#213,#214,#236,.T.);
#171=EDGE_CURVE('',#214,#209,#237,.T.);
#172=EDGE_CURVE('',#215,#216,#42,.T.);
#173=EDGE_CURVE('',#216,#217,#238,.T.);
#174=EDGE_CURVE('',#217,#218,#43,.F.);
#175=EDGE_CURVE('',#218,#193,#239,.T.);
#176=EDGE_CURVE('',#219,#191,#240,.T.);
#177=EDGE_CURVE('',#220,#219,#44,.T.);
#178=EDGE_CURVE('',#220,#215,#241,.T.);
#179=EDGE_CURVE('',#217,#213,#15,.T.);
#180=EDGE_CURVE('',#212,#218,#16,.T.);
#181=EDGE_CURVE('',#215,#208,#242,.T.);
#182=EDGE_CURVE('',#214,#216,#28,.F.);
#183=EDGE_CURVE('',#221,#211,#243,.T.);
#184=EDGE_CURVE('',#222,#210,#244,.T.);
#185=EDGE_CURVE('',#222,#221,#45,.T.);
#186=EDGE_CURVE('',#219,#223,#245,.F.);
#187=EDGE_CURVE('',#224,#223,#46,.T.);
#188=EDGE_CURVE('',#220,#224,#246,.F.);
#189=EDGE_CURVE('',#221,#223,#247,.T.);
#190=EDGE_CURVE('',#222,#224,#248,.T.);
#191=VERTEX_POINT('',#515);
#192=VERTEX_POINT('',#516);
#193=VERTEX_POINT('',#518);
#194=VERTEX_POINT('',#520);
#195=VERTEX_POINT('',#522);
#196=VERTEX_POINT('',#526);
#197=VERTEX_POINT('',#527);
#198=VERTEX_POINT('',#529);
#199=VERTEX_POINT('',#531);
#200=VERTEX_POINT('',#535);
#201=VERTEX_POINT('',#537);
#202=VERTEX_POINT('',#539);
#203=VERTEX_POINT('',#541);
#204=VERTEX_POINT('',#543);
#205=VERTEX_POINT('',#547);
#206=VERTEX_POINT('',#549);
#207=VERTEX_POINT('',#551);
#208=VERTEX_POINT('',#553);
#209=VERTEX_POINT('',#554);
#210=VERTEX_POINT('',#556);
#211=VERTEX_POINT('',#558);
#212=VERTEX_POINT('',#564);
#213=VERTEX_POINT('',#574);
#214=VERTEX_POINT('',#576);
#215=VERTEX_POINT('',#580);
#216=VERTEX_POINT('',#581);
#217=VERTEX_POINT('',#583);
#218=VERTEX_POINT('',#585);
#219=VERTEX_POINT('',#588);
#220=VERTEX_POINT('',#590);
#221=VERTEX_POINT('',#609);
#222=VERTEX_POINT('',#611);
#223=VERTEX_POINT('',#615);
#224=VERTEX_POINT('',#617);
#225=LINE('',#514,#249);
#226=LINE('',#521,#250);
#227=LINE('',#525,#251);
#228=LINE('',#530,#252);
#229=LINE('',#540,#253);
#230=LINE('',#544,#254);
#231=LINE('',#555,#255);
#232=LINE('',#559,#256);
#233=LINE('',#560,#257);
#234=LINE('',#561,#258);
#235=LINE('',#563,#259);
#236=LINE('',#575,#260);
#237=LINE('',#577,#261);
#238=LINE('',#582,#262);
#239=LINE('',#586,#263);
#240=LINE('',#587,#264);
#241=LINE('',#591,#265);
#242=LINE('',#602,#266);
#243=LINE('',#608,#267);
#244=LINE('',#610,#268);
#245=LINE('',#614,#269);
#246=LINE('',#618,#270);
#247=LINE('',#620,#271);
#248=LINE('',#621,#272);
#249=VECTOR('',#412,1.);
#250=VECTOR('',#417,1.);
#251=VECTOR('',#422,1.);
#252=VECTOR('',#425,1.);
#253=VECTOR('',#436,1.);
#254=VECTOR('',#439,1.);
#255=VECTOR('',#450,1.);
#256=VECTOR('',#453,1.);
#257=VECTOR('',#454,1.);
#258=VECTOR('',#455,1.);
#259=VECTOR('',#458,1.);
#260=VECTOR('',#461,1.);
#261=VECTOR('',#462,1.);
#262=VECTOR('',#467,1.);
#263=VECTOR('',#470,1.);
#264=VECTOR('',#471,1.);
#265=VECTOR('',#474,1.);
#266=VECTOR('',#479,1.);
#267=VECTOR('',#490,1.);
#268=VECTOR('',#491,1.);
#269=VECTOR('',#496,1.);
#270=VECTOR('',#499,1.);
#271=VECTOR('',#502,1.);
#272=VECTOR('',#503,1.);
#273=EDGE_LOOP('',(#47,#48,#49,#50,#51));
#274=EDGE_LOOP('',(#52,#53,#54,#55));
#275=EDGE_LOOP('',(#56));
#276=EDGE_LOOP('',(#57));
#277=EDGE_LOOP('',(#58));
#278=EDGE_LOOP('',(#59,#60,#61,#62));
#279=EDGE_LOOP('',(#63));
#280=EDGE_LOOP('',(#64));
#281=EDGE_LOOP('',(#65));
#282=EDGE_LOOP('',(#66,#67,#68,#69,#70,#71,#72,#73));
#283=EDGE_LOOP('',(#74,#75,#76,#77,#78,#79));
#284=EDGE_LOOP('',(#80,#81,#82,#83,#84,#85));
#285=EDGE_LOOP('',(#86,#87,#88,#89,#90,#91,#92,#93));
#286=EDGE_LOOP('',(#94,#95,#96,#97,#98,#99));
#287=EDGE_LOOP('',(#100,#101,#102,#103,#104));
#288=EDGE_LOOP('',(#105));
#289=EDGE_LOOP('',(#106));
#290=EDGE_LOOP('',(#107));
#291=EDGE_LOOP('',(#108));
#292=EDGE_LOOP('',(#109));
#293=EDGE_LOOP('',(#110));
#294=EDGE_LOOP('',(#111,#112,#113,#114));
#295=EDGE_LOOP('',(#115,#116,#117,#118));
#296=EDGE_LOOP('',(#119,#120,#121,#122));
#297=EDGE_LOOP('',(#123,#124,#125,#126,#127,#128));
#298=EDGE_LOOP('',(#129,#130,#131,#132,#133,#134));
#299=EDGE_LOOP('',(#135,#136,#137,#138));
#300=EDGE_LOOP('',(#139,#140,#141,#142));
#301=FACE_BOUND('',#273,.T.);
#302=FACE_BOUND('',#274,.T.);
#303=FACE_BOUND('',#275,.T.);
#304=FACE_BOUND('',#276,.T.);
#305=FACE_BOUND('',#277,.T.);
#306=FACE_BOUND('',#278,.T.);
#307=FACE_BOUND('',#279,.T.);
#308=FACE_BOUND('',#280,.T.);
#309=FACE_BOUND('',#281,.T.);
#310=FACE_BOUND('',#282,.T.);
#311=FACE_BOUND('',#283,.T.);
#312=FACE_BOUND('',#284,.T.);
#313=FACE_BOUND('',#285,.T.);
#314=FACE_BOUND('',#286,.T.);
#315=FACE_BOUND('',#287,.T.);
#316=FACE_BOUND('',#288,.T.);
#317=FACE_BOUND('',#289,.T.);
#318=FACE_BOUND('',#290,.T.);
#319=FACE_BOUND('',#291,.T.);
#320=FACE_BOUND('',#292,.T.);
#321=FACE_BOUND('',#293,.T.);
#322=FACE_BOUND('',#294,.T.);
#323=FACE_BOUND('',#295,.T.);
#324=FACE_BOUND('',#296,.T.);
#325=FACE_BOUND('',#297,.T.);
#326=FACE_BOUND('',#298,.T.);
#327=FACE_BOUND('',#299,.T.);
#328=FACE_BOUND('',#300,.T.);
#329=CYLINDRICAL_SURFACE('',#369,0.0075);
#330=CYLINDRICAL_SURFACE('',#373,0.0125);
#331=CYLINDRICAL_SURFACE('',#394,0.0075);
#332=CYLINDRICAL_SURFACE('',#396,0.0016);
#333=CYLINDRICAL_SURFACE('',#397,0.0016);
#334=CYLINDRICAL_SURFACE('',#398,0.004);
#335=CYLINDRICAL_SURFACE('',#399,0.004);
#336=CYLINDRICAL_SURFACE('',#401,0.006);
#337=ADVANCED_FACE('',(#301),#329,.T.);
#338=ADVANCED_FACE('',(#302),#330,.T.);
#339=ADVANCED_FACE('',(#303,#304,#305,#306),#17,.T.);
#340=ADVANCED_FACE('',(#307,#308,#309,#310),#18,.F.);
#341=ADVANCED_FACE('',(#311),#19,.F.);
#342=ADVANCED_FACE('',(#312),#20,.T.);
#343=ADVANCED_FACE('',(#313),#21,.T.);
#344=ADVANCED_FACE('',(#314),#12,.F.);
#345=ADVANCED_FACE('',(#315),#331,.T.);
#346=ADVANCED_FACE('',(#316,#317),#332,.F.);
#347=ADVANCED_FACE('',(#318,#319),#333,.F.);
#348=ADVANCED_FACE('',(#320,#321),#334,.F.);
#349=ADVANCED_FACE('',(#322),#335,.F.);
#350=ADVANCED_FACE('',(#323),#336,.T.);
#351=ADVANCED_FACE('',(#324),#22,.T.);
#352=ADVANCED_FACE('',(#325),#23,.T.);
#353=ADVANCED_FACE('',(#326),#24,.F.);
#354=ADVANCED_FACE('',(#327),#25,.F.);
#355=ADVANCED_FACE('',(#328),#26,.T.);
#356=CLOSED_SHELL('',(#337,#338,#339,#340,#341,#342,#343,#344,#345,#346,
#347,#348,#349,#350,#351,#352,#353,#354,#355));
#357=STYLED_ITEM('',(#358),#365);
#358=PRESENTATION_STYLE_ASSIGNMENT((#359));
#359=SURFACE_STYLE_USAGE(.BOTH.,#360);
#360=SURFACE_SIDE_STYLE('',(#361));
#361=SURFACE_STYLE_FILL_AREA(#362);
#362=FILL_AREA_STYLE('',(#363));
#363=FILL_AREA_STYLE_COLOUR('',#364);
#364=COLOUR_RGB('',0.615686274509804,0.811764705882353,0.929411764705882);
#365=MANIFOLD_SOLID_BREP('Part 1',#356);
#366=SHAPE_DEFINITION_REPRESENTATION(#632,#367);
#367=SHAPE_REPRESENTATION('Part 1',(#368),#627);
#368=AXIS2_PLACEMENT_3D('',#512,#408,#409);
#369=AXIS2_PLACEMENT_3D('',#513,#410,#411);
#370=AXIS2_PLACEMENT_3D('',#517,#413,#414);
#371=AXIS2_PLACEMENT_3D('',#519,#415,#416);
#372=AXIS2_PLACEMENT_3D('',#523,#418,#419);
#373=AXIS2_PLACEMENT_3D('',#524,#420,#421);
#374=AXIS2_PLACEMENT_3D('',#528,#423,#424);
#375=AXIS2_PLACEMENT_3D('',#532,#426,#427);
#376=AXIS2_PLACEMENT_3D('',#533,#428,#429);
#377=AXIS2_PLACEMENT_3D('',#534,#430,#431);
#378=AXIS2_PLACEMENT_3D('',#536,#432,#433);
#379=AXIS2_PLACEMENT_3D('',#538,#434,#435);
#380=AXIS2_PLACEMENT_3D('',#542,#437,#438);
#381=AXIS2_PLACEMENT_3D('',#545,#440,#441);
#382=AXIS2_PLACEMENT_3D('',#546,#442,#443);
#383=AXIS2_PLACEMENT_3D('',#548,#444,#445);
#384=AXIS2_PLACEMENT_3D('',#550,#446,#447);
#385=AXIS2_PLACEMENT_3D('',#552,#448,#449);
#386=AXIS2_PLACEMENT_3D('',#557,#451,#452);
#387=AXIS2_PLACEMENT_3D('',#562,#456,#457);
#388=AXIS2_PLACEMENT_3D('',#569,#459,#460);
#389=AXIS2_PLACEMENT_3D('',#578,#463,#464);
#390=AXIS2_PLACEMENT_3D('',#579,#465,#466);
#391=AXIS2_PLACEMENT_3D('',#584,#468,#469);
#392=AXIS2_PLACEMENT_3D('',#589,#472,#473);
#393=AXIS2_PLACEMENT_3D('',#592,#475,#476);
#394=AXIS2_PLACEMENT_3D('',#601,#477,#478);
#395=AXIS2_PLACEMENT_3D('',#603,#480,#481);
#396=AXIS2_PLACEMENT_3D('',#604,#482,#483);
#397=AXIS2_PLACEMENT_3D('',#605,#484,#485);
#398=AXIS2_PLACEMENT_3D('',#606,#486,#487);
#399=AXIS2_PLACEMENT_3D('',#607,#488,#489);
#400=AXIS2_PLACEMENT_3D('',#612,#492,#493);
#401=AXIS2_PLACEMENT_3D('',#613,#494,#495);
#402=AXIS2_PLACEMENT_3D('',#616,#497,#498);
#403=AXIS2_PLACEMENT_3D('',#619,#500,#501);
#404=AXIS2_PLACEMENT_3D('',#622,#504,#505);
#405=AXIS2_PLACEMENT_3D('',#623,#506,#507);
#406=AXIS2_PLACEMENT_3D('',#624,#508,#509);
#407=AXIS2_PLACEMENT_3D('',#625,#510,#511);
#408=DIRECTION('',(0.,0.,1.));
#409=DIRECTION('',(1.,0.,0.));
#410=DIRECTION('',(0.,0.,-1.));
#411=DIRECTION('',(-1.,0.,0.));
#412=DIRECTION('',(0.,0.,-1.));
#413=DIRECTION('',(0.,0.,1.));
#414=DIRECTION('',(1.,0.,0.));
#415=DIRECTION('',(0.,-0.707106781186548,0.707106781186548));
#416=DIRECTION('',(0.,-0.707106781186548,-0.707106781186548));
#417=DIRECTION('',(0.,0.,-1.));
#418=DIRECTION('',(0.,0.,1.));
#419=DIRECTION('',(1.,0.,0.));
#420=DIRECTION('',(0.,0.,-1.));
#421=DIRECTION('',(-1.,0.,0.));
#422=DIRECTION('',(0.,0.,-1.));
#423=DIRECTION('',(0.,0.,1.));
#424=DIRECTION('',(1.,0.,0.));
#425=DIRECTION('',(0.,0.,-1.));
#426=DIRECTION('',(0.,0.,1.));
#427=DIRECTION('',(1.,0.,0.));
#428=DIRECTION('',(0.,0.,1.));
#429=DIRECTION('',(1.,0.,0.));
#430=DIRECTION('',(0.,0.,1.));
#431=DIRECTION('',(1.,0.,0.));
#432=DIRECTION('',(0.,0.,1.));
#433=DIRECTION('',(1.,0.,0.));
#434=DIRECTION('',(0.,0.,1.));
#435=DIRECTION('',(1.,0.,0.));
#436=DIRECTION('',(-1.,0.,0.));
#437=DIRECTION('',(0.,0.,1.));
#438=DIRECTION('',(1.,0.,0.));
#439=DIRECTION('',(1.,0.,0.));
#440=DIRECTION('',(0.,0.,1.));
#441=DIRECTION('',(1.,0.,0.));
#442=DIRECTION('',(0.,0.,1.));
#443=DIRECTION('',(1.,0.,0.));
#444=DIRECTION('',(0.,0.,1.));
#445=DIRECTION('',(1.,0.,0.));
#446=DIRECTION('',(0.,0.,1.));
#447=DIRECTION('',(1.,0.,0.));
#448=DIRECTION('',(0.,0.,1.));
#449=DIRECTION('',(1.,0.,0.));
#450=DIRECTION('',(-1.,0.,0.));
#451=DIRECTION('',(0.,0.,1.));
#452=DIRECTION('',(1.,0.,0.));
#453=DIRECTION('',(-1.,0.,0.));
#454=DIRECTION('',(1.,0.,0.));
#455=DIRECTION('',(1.,0.,0.));
#456=DIRECTION('',(0.,1.,0.));
#457=DIRECTION('',(0.,0.,1.));
#458=DIRECTION('',(-1.,0.,0.));
#459=DIRECTION('',(0.,1.,0.));
#460=DIRECTION('',(0.,0.,1.));
#461=DIRECTION('',(1.,0.,0.));
#462=DIRECTION('',(0.,0.,-1.));
#463=DIRECTION('',(0.,0.,1.));
#464=DIRECTION('',(1.,0.,0.));
#465=DIRECTION('',(0.,0.,1.));
#466=DIRECTION('',(1.,0.,0.));
#467=DIRECTION('',(-1.,0.,0.));
#468=DIRECTION('',(0.,0.,1.));
#469=DIRECTION('',(1.,0.,0.));
#470=DIRECTION('',(1.,0.,0.));
#471=DIRECTION('',(1.,0.,0.));
#472=DIRECTION('',(0.,0.,1.));
#473=DIRECTION('',(1.,0.,0.));
#474=DIRECTION('',(1.,0.,0.));
#475=DIRECTION('',(0.,0.,1.));
#476=DIRECTION('',(1.,0.,0.));
#477=DIRECTION('',(0.,0.,-1.));
#478=DIRECTION('',(-1.,0.,0.));
#479=DIRECTION('',(0.,0.,-1.));
#480=DIRECTION('',(0.,-0.707106781186548,-0.707106781186548));
#481=DIRECTION('',(0.,0.707106781186548,-0.707106781186548));
#482=DIRECTION('',(0.,0.,1.));
#483=DIRECTION('',(1.,0.,0.));
#484=DIRECTION('',(0.,0.,1.));
#485=DIRECTION('',(1.,0.,0.));
#486=DIRECTION('',(0.,0.,1.));
#487=DIRECTION('',(1.,0.,0.));
#488=DIRECTION('',(0.,0.,-1.));
#489=DIRECTION('',(-1.,0.,0.));
#490=DIRECTION('',(0.,0.,-1.));
#491=DIRECTION('',(0.,0.,-1.));
#492=DIRECTION('',(0.,0.,1.));
#493=DIRECTION('',(1.,0.,0.));
#494=DIRECTION('',(0.,0.,-1.));
#495=DIRECTION('',(-1.,0.,0.));
#496=DIRECTION('',(0.,0.,-1.));
#497=DIRECTION('',(0.,0.,1.));
#498=DIRECTION('',(1.,0.,0.));
#499=DIRECTION('',(0.,0.,-1.));
#500=DIRECTION('',(0.,0.,1.));
#501=DIRECTION('',(1.,0.,0.));
#502=DIRECTION('',(1.,0.,0.));
#503=DIRECTION('',(1.,0.,0.));
#504=DIRECTION('',(0.,-1.,0.));
#505=DIRECTION('',(0.,0.,-1.));
#506=DIRECTION('',(0.,-1.,0.));
#507=DIRECTION('',(0.,0.,-1.));
#508=DIRECTION('',(0.,-0.707106781186548,-0.707106781186548));
#509=DIRECTION('',(1.,0.,0.));
#510=DIRECTION('',(0.,-0.707106781186548,0.707106781186548));
#511=DIRECTION('',(-1.,0.,0.));
#512=CARTESIAN_POINT('',(0.,0.,0.));
#513=CARTESIAN_POINT('',(0.1,0.005,0.01));
#514=CARTESIAN_POINT('',(0.107433034373659,0.004,0.02));
#515=CARTESIAN_POINT('',(0.107433034373659,0.004,0.01));
#516=CARTESIAN_POINT('',(0.107433034373659,0.004,0.));
#517=CARTESIAN_POINT('',(0.1,0.005,0.01));
#518=CARTESIAN_POINT('',(0.0929289321881345,0.0025,0.01));
#519=CARTESIAN_POINT('',(0.1,0.005,0.0125));
#520=CARTESIAN_POINT('',(0.0944098300562505,0.,0.0075));
#521=CARTESIAN_POINT('',(0.0944098300562505,0.,0.01));
#522=CARTESIAN_POINT('',(0.0944098300562505,0.,0.));
#523=CARTESIAN_POINT('',(0.1,0.005,0.));
#524=CARTESIAN_POINT('',(-1.90819582357449E-17,0.005,0.006));
#525=CARTESIAN_POINT('',(0.0114564392373896,0.,0.01));
#526=CARTESIAN_POINT('',(0.0114564392373896,0.,0.006));
#527=CARTESIAN_POINT('',(0.0114564392373896,0.,0.));
#528=CARTESIAN_POINT('',(-1.90819582357449E-17,0.005,0.006));
#529=CARTESIAN_POINT('',(0.0114564392373896,0.01,0.006));
#530=CARTESIAN_POINT('',(0.0114564392373896,0.01,0.01));
#531=CARTESIAN_POINT('',(0.0114564392373896,0.01,0.));
#532=CARTESIAN_POINT('',(-1.90819582357449E-17,0.005,0.));
#533=CARTESIAN_POINT('',(0.0475,0.005,0.006));
#534=CARTESIAN_POINT('',(-1.93268875955743E-17,0.005,0.006));
#535=CARTESIAN_POINT('',(0.00399999999999998,0.005,0.006));
#536=CARTESIAN_POINT('',(-1.91799299796766E-17,0.0135,0.006));
#537=CARTESIAN_POINT('',(0.00159999999999998,0.0135,0.006));
#538=CARTESIAN_POINT('',(-1.91799299796766E-17,-0.0035,0.006));
#539=CARTESIAN_POINT('',(0.00159999999999998,-0.0035,0.006));
#540=CARTESIAN_POINT('',(0.0475,0.,0.006));
#541=CARTESIAN_POINT('',(0.0125399362039844,0.,0.006));
#542=CARTESIAN_POINT('',(-1.21430643318376E-17,0.005,0.006));
#543=CARTESIAN_POINT('',(0.0125399362039845,0.01,0.006));
#544=CARTESIAN_POINT('',(0.0529331346468201,0.01,0.006));
#545=CARTESIAN_POINT('',(0.0475,0.005,0.));
#546=CARTESIAN_POINT('',(-1.93268875955743E-17,0.005,0.));
#547=CARTESIAN_POINT('',(0.00399999999999998,0.005,0.));
#548=CARTESIAN_POINT('',(-1.91799299796766E-17,0.0135,0.));
#549=CARTESIAN_POINT('',(0.00159999999999998,0.0135,0.));
#550=CARTESIAN_POINT('',(-1.91799299796766E-17,-0.0035,0.));
#551=CARTESIAN_POINT('',(0.00159999999999998,-0.0035,0.));
#552=CARTESIAN_POINT('',(0.1,0.005,0.));
#553=CARTESIAN_POINT('',(0.107433034373659,0.006,0.));
#554=CARTESIAN_POINT('',(0.0944098300562505,0.01,0.));
#555=CARTESIAN_POINT('',(0.105686491673104,0.006,0.));
#556=CARTESIAN_POINT('',(0.103872983346207,0.006,0.));
#557=CARTESIAN_POINT('',(0.1,0.005,0.));
#558=CARTESIAN_POINT('',(0.103872983346207,0.004,0.));
#559=CARTESIAN_POINT('',(0.105686491673104,0.004,0.));
#560=CARTESIAN_POINT('',(0.0529331346468201,0.,0.));
#561=CARTESIAN_POINT('',(0.0529331346468201,0.01,0.));
#562=CARTESIAN_POINT('',(0.0529331346468201,0.,0.01));
#563=CARTESIAN_POINT('',(0.0167705098312484,0.,0.0075));
#564=CARTESIAN_POINT('',(0.0141421356237408,0.,0.00750000000000931));
#565=CARTESIAN_POINT('',(0.0141421356237408,0.,0.00750000000000932));
#566=CARTESIAN_POINT('',(0.0136098255620891,0.,0.00699813326095893));
#567=CARTESIAN_POINT('',(0.0130759678899936,0.,0.00649791134413849));
#568=CARTESIAN_POINT('',(0.0125399362039844,0.,0.006));
#569=CARTESIAN_POINT('',(0.0529331346468201,0.01,0.01));
#570=CARTESIAN_POINT('',(0.0125399362039845,0.01,0.00600000000000001));
#571=CARTESIAN_POINT('',(0.0130759678899925,0.01,0.00649791134413743));
#572=CARTESIAN_POINT('',(0.0136098255620868,0.01,0.00699813326095679));
#573=CARTESIAN_POINT('',(0.0141421356237374,0.01,0.00750000000000609));
#574=CARTESIAN_POINT('',(0.0141421356237374,0.01,0.00750000000000608));
#575=CARTESIAN_POINT('',(0.0529331346468201,0.01,0.0075));
#576=CARTESIAN_POINT('',(0.0944098300562505,0.01,0.0075));
#577=CARTESIAN_POINT('',(0.0944098300562505,0.01,0.01));
#578=CARTESIAN_POINT('',(0.0475,0.005,0.01));
#579=CARTESIAN_POINT('',(0.1,0.005,0.01));
#580=CARTESIAN_POINT('',(0.107433034373659,0.006,0.01));
#581=CARTESIAN_POINT('',(0.0929289321881345,0.0075,0.01));
#582=CARTESIAN_POINT('',(0.0475,0.0075,0.01));
#583=CARTESIAN_POINT('',(0.0173205080756888,0.0075,0.01));
#584=CARTESIAN_POINT('',(-1.21430643318376E-17,0.005,0.01));
#585=CARTESIAN_POINT('',(0.0173205080756888,0.0025,0.01));
#586=CARTESIAN_POINT('',(0.0944098300562505,0.0025,0.01));
#587=CARTESIAN_POINT('',(0.0475,0.004,0.01));
#588=CARTESIAN_POINT('',(0.1059160797831,0.004,0.01));
#589=CARTESIAN_POINT('',(0.1,0.005,0.01));
#590=CARTESIAN_POINT('',(0.1059160797831,0.006,0.01));
#591=CARTESIAN_POINT('',(0.0475,0.006,0.01));
#592=CARTESIAN_POINT('',(-1.21430643318376E-17,0.005,0.005));
#593=CARTESIAN_POINT('',(0.0173205080756888,0.0075,0.01));
#594=CARTESIAN_POINT('',(0.0163171095701691,0.00836896859589937,0.00913103140410063));
#595=CARTESIAN_POINT('',(0.0152642866854533,0.00920651937474012,0.00829348062525988));
#596=CARTESIAN_POINT('',(0.0141421356237364,0.00999999999999613,0.00750000000000387));
#597=CARTESIAN_POINT('',(0.0141421356237496,0.,0.0075));
#598=CARTESIAN_POINT('',(0.0152642866854652,0.000793480625255157,0.00829348062525516));
#599=CARTESIAN_POINT('',(0.0163171095701705,0.00163103140410183,0.00913103140410183));
#600=CARTESIAN_POINT('',(0.0173205080756888,0.0025,0.01));
#601=CARTESIAN_POINT('',(0.1,0.005,0.01));
#602=CARTESIAN_POINT('',(0.107433034373659,0.006,0.02));
#603=CARTESIAN_POINT('',(0.1,0.005,0.0125));
#604=CARTESIAN_POINT('',(-1.91799299796766E-17,-0.0035,-2.00000000000027E-6));
#605=CARTESIAN_POINT('',(-1.91799299796766E-17,0.0135,-2.00000000000027E-6));
#606=CARTESIAN_POINT('',(-1.93268875955743E-17,0.005,-2.00000000000027E-6));
#607=CARTESIAN_POINT('',(0.1,0.005,0.011));
#608=CARTESIAN_POINT('',(0.103872983346207,0.004,0.02));
#609=CARTESIAN_POINT('',(0.103872983346207,0.004,0.011));
#610=CARTESIAN_POINT('',(0.103872983346207,0.006,0.02));
#611=CARTESIAN_POINT('',(0.103872983346207,0.006,0.011));
#612=CARTESIAN_POINT('',(0.1,0.005,0.011));
#613=CARTESIAN_POINT('',(0.1,0.005,0.011));
#614=CARTESIAN_POINT('',(0.1059160797831,0.004,0.011));
#615=CARTESIAN_POINT('',(0.1059160797831,0.004,0.011));
#616=CARTESIAN_POINT('',(0.1,0.005,0.011));
#617=CARTESIAN_POINT('',(0.1059160797831,0.006,0.011));
#618=CARTESIAN_POINT('',(0.1059160797831,0.006,0.011));
#619=CARTESIAN_POINT('',(0.0621352549156242,0.005,0.011));
#620=CARTESIAN_POINT('',(0.0621352549156242,0.004,0.011));
#621=CARTESIAN_POINT('',(0.0621352549156242,0.006,0.011));
#622=CARTESIAN_POINT('',(0.105686491673104,0.006,0.02));
#623=CARTESIAN_POINT('',(0.105686491673104,0.004,0.02));
#624=CARTESIAN_POINT('',(0.0529331346468201,0.01,0.0075));
#625=CARTESIAN_POINT('',(0.0475,0.0025,0.01));
#626=MECHANICAL_DESIGN_GEOMETRIC_PRESENTATION_REPRESENTATION('',(#357),
#627);
#627=(
GEOMETRIC_REPRESENTATION_CONTEXT(3)
GLOBAL_UNCERTAINTY_ASSIGNED_CONTEXT((#628))
GLOBAL_UNIT_ASSIGNED_CONTEXT((#631,#630,#629))
REPRESENTATION_CONTEXT('Part 1','TOP_LEVEL_ASSEMBLY_PART')
);
#628=UNCERTAINTY_MEASURE_WITH_UNIT(LENGTH_MEASURE(2.E-5),#631,
'DISTANCE_ACCURACY_VALUE','Maximum Tolerance applied to model');
#629=(
NAMED_UNIT(*)
SI_UNIT($,.STERADIAN.)
SOLID_ANGLE_UNIT()
);
#630=(
NAMED_UNIT(*)
PLANE_ANGLE_UNIT()
SI_UNIT($,.RADIAN.)
);
#631=(
LENGTH_UNIT()
NAMED_UNIT(*)
SI_UNIT($,.METRE.)
);
#632=PRODUCT_DEFINITION_SHAPE('','',#633);
#633=PRODUCT_DEFINITION('','',#635,#634);
#634=PRODUCT_DEFINITION_CONTEXT('',#641,'design');
#635=PRODUCT_DEFINITION_FORMATION_WITH_SPECIFIED_SOURCE('','',#637,
 .NOT_KNOWN.);
#636=PRODUCT_RELATED_PRODUCT_CATEGORY('','',(#637));
#637=PRODUCT('Part 1','Part 1','Part 1',(#639));
#638=PRODUCT_CATEGORY('','');
#639=PRODUCT_CONTEXT('',#641,'mechanical');
#640=APPLICATION_PROTOCOL_DEFINITION('international standard',
'ap242_managed_model_based_3d_engineering',2020,#641);
#641=APPLICATION_CONTEXT('managed model based 3d engineering');
ENDSEC;
END-ISO-10303-21;
