ISO-10303-21;
HEADER;
/* Generated by software containing ST-Developer
 * from STEP Tools, Inc. (www.steptools.com) 
 */
/* OPTION: using custom renumber hook */

FILE_DESCRIPTION(
/* description */ ('STEP AP242 Edition 2',
'CAx-IF Rec.Pracs.---Representation and Presentation of Product Manufa
cturing Information (PMI)---4.0---2014-10-13',
'CAx-IF Rec.Pracs.---3D Tessellated Geometry---0.4---2014-09-14','2;1',
'CAx-IF Rec.Pracs.---User Defined Attributes---1.5---2016-08-15'),
/* implementation_level */ '2;1');

FILE_NAME(
/* name */ 'Reaction_wheel',
/* time_stamp */ '2026-05-10T00:00:40Z',
/* author */ (''),
/* organization */ (''),
/* preprocessor_version */ 'ST-DEVELOPER v20',
/* originating_system */ 'ONSHAPE BY PTC INC, 1.214',
/* authorisation */ '  ');

FILE_SCHEMA (('AP242_MANAGED_MODEL_BASED_3D_ENGINEERING_MIM_LF { 1 0 10303 442 3 1 4 }'));
ENDSEC;

DATA;
#10=SHAPE_REPRESENTATION_RELATIONSHIP('','',#297,#11);
#11=ADVANCED_BREP_SHAPE_REPRESENTATION('',(#295),#497);
#12=CYLINDRICAL_SURFACE('',#308,0.015);
#13=CYLINDRICAL_SURFACE('',#311,0.04);
#14=CYLINDRICAL_SURFACE('',#314,0.015);
#15=CYLINDRICAL_SURFACE('',#318,0.04);
#16=CYLINDRICAL_SURFACE('',#320,0.065);
#17=CYLINDRICAL_SURFACE('',#327,0.0016);
#18=CYLINDRICAL_SURFACE('',#328,0.0016);
#19=CYLINDRICAL_SURFACE('',#329,0.055);
#20=CYLINDRICAL_SURFACE('',#332,0.004);
#21=LINE('',#426,#37);
#22=LINE('',#430,#38);
#23=LINE('',#431,#39);
#24=LINE('',#436,#40);
#25=LINE('',#449,#41);
#26=LINE('',#450,#42);
#27=LINE('',#452,#43);
#28=LINE('',#454,#44);
#29=LINE('',#458,#45);
#30=LINE('',#460,#46);
#31=LINE('',#463,#47);
#32=LINE('',#464,#48);
#33=LINE('',#468,#49);
#34=LINE('',#470,#50);
#35=LINE('',#472,#51);
#36=LINE('',#474,#52);
#37=VECTOR('',#341,1.);
#38=VECTOR('',#344,1.);
#39=VECTOR('',#345,1.);
#40=VECTOR('',#348,1.);
#41=VECTOR('',#361,1.);
#42=VECTOR('',#362,1.);
#43=VECTOR('',#365,1.);
#44=VECTOR('',#366,1.);
#45=VECTOR('',#371,1.);
#46=VECTOR('',#374,1.);
#47=VECTOR('',#375,1.);
#48=VECTOR('',#376,1.);
#49=VECTOR('',#381,1.);
#50=VECTOR('',#384,1.);
#51=VECTOR('',#385,1.);
#52=VECTOR('',#388,1.);
#53=ORIENTED_EDGE('',*,*,#121,.F.);
#54=ORIENTED_EDGE('',*,*,#122,.T.);
#55=ORIENTED_EDGE('',*,*,#123,.T.);
#56=ORIENTED_EDGE('',*,*,#124,.F.);
#57=ORIENTED_EDGE('',*,*,#125,.F.);
#58=ORIENTED_EDGE('',*,*,#126,.F.);
#59=ORIENTED_EDGE('',*,*,#127,.T.);
#60=ORIENTED_EDGE('',*,*,#128,.F.);
#61=ORIENTED_EDGE('',*,*,#129,.F.);
#62=ORIENTED_EDGE('',*,*,#130,.F.);
#63=ORIENTED_EDGE('',*,*,#131,.F.);
#64=ORIENTED_EDGE('',*,*,#132,.T.);
#65=ORIENTED_EDGE('',*,*,#133,.T.);
#66=ORIENTED_EDGE('',*,*,#134,.F.);
#67=ORIENTED_EDGE('',*,*,#122,.F.);
#68=ORIENTED_EDGE('',*,*,#135,.T.);
#69=ORIENTED_EDGE('',*,*,#136,.T.);
#70=ORIENTED_EDGE('',*,*,#137,.F.);
#71=ORIENTED_EDGE('',*,*,#123,.F.);
#72=ORIENTED_EDGE('',*,*,#134,.T.);
#73=ORIENTED_EDGE('',*,*,#138,.F.);
#74=ORIENTED_EDGE('',*,*,#139,.F.);
#75=ORIENTED_EDGE('',*,*,#124,.T.);
#76=ORIENTED_EDGE('',*,*,#137,.T.);
#77=ORIENTED_EDGE('',*,*,#140,.F.);
#78=ORIENTED_EDGE('',*,*,#141,.F.);
#79=ORIENTED_EDGE('',*,*,#126,.T.);
#80=ORIENTED_EDGE('',*,*,#142,.T.);
#81=ORIENTED_EDGE('',*,*,#143,.T.);
#82=ORIENTED_EDGE('',*,*,#144,.F.);
#83=ORIENTED_EDGE('',*,*,#127,.F.);
#84=ORIENTED_EDGE('',*,*,#141,.T.);
#85=ORIENTED_EDGE('',*,*,#145,.F.);
#86=ORIENTED_EDGE('',*,*,#146,.F.);
#87=ORIENTED_EDGE('',*,*,#128,.T.);
#88=ORIENTED_EDGE('',*,*,#144,.T.);
#89=ORIENTED_EDGE('',*,*,#147,.F.);
#90=ORIENTED_EDGE('',*,*,#135,.F.);
#91=ORIENTED_EDGE('',*,*,#125,.T.);
#92=ORIENTED_EDGE('',*,*,#139,.T.);
#93=ORIENTED_EDGE('',*,*,#148,.F.);
#94=ORIENTED_EDGE('',*,*,#142,.F.);
#95=ORIENTED_EDGE('',*,*,#129,.T.);
#96=ORIENTED_EDGE('',*,*,#146,.T.);
#97=ORIENTED_EDGE('',*,*,#149,.T.);
#98=ORIENTED_EDGE('',*,*,#150,.F.);
#99=ORIENTED_EDGE('',*,*,#151,.F.);
#100=ORIENTED_EDGE('',*,*,#152,.F.);
#101=ORIENTED_EDGE('',*,*,#153,.F.);
#102=ORIENTED_EDGE('',*,*,#140,.T.);
#103=ORIENTED_EDGE('',*,*,#148,.T.);
#104=ORIENTED_EDGE('',*,*,#145,.T.);
#105=ORIENTED_EDGE('',*,*,#143,.F.);
#106=ORIENTED_EDGE('',*,*,#133,.F.);
#107=ORIENTED_EDGE('',*,*,#147,.T.);
#108=ORIENTED_EDGE('',*,*,#138,.T.);
#109=ORIENTED_EDGE('',*,*,#136,.F.);
#110=ORIENTED_EDGE('',*,*,#149,.F.);
#111=ORIENTED_EDGE('',*,*,#153,.T.);
#112=ORIENTED_EDGE('',*,*,#130,.T.);
#113=ORIENTED_EDGE('',*,*,#152,.T.);
#114=ORIENTED_EDGE('',*,*,#131,.T.);
#115=ORIENTED_EDGE('',*,*,#154,.T.);
#116=ORIENTED_EDGE('',*,*,#132,.F.);
#117=ORIENTED_EDGE('',*,*,#154,.F.);
#118=ORIENTED_EDGE('',*,*,#150,.T.);
#119=ORIENTED_EDGE('',*,*,#151,.T.);
#120=ORIENTED_EDGE('',*,*,#121,.T.);
#121=EDGE_CURVE('',#155,#155,#181,.T.);
#122=EDGE_CURVE('',#156,#157,#182,.T.);
#123=EDGE_CURVE('',#157,#158,#21,.T.);
#124=EDGE_CURVE('',#159,#158,#183,.T.);
#125=EDGE_CURVE('',#156,#159,#22,.T.);
#126=EDGE_CURVE('',#160,#161,#23,.T.);
#127=EDGE_CURVE('',#160,#162,#184,.T.);
#128=EDGE_CURVE('',#163,#162,#24,.T.);
#129=EDGE_CURVE('',#161,#163,#185,.T.);
#130=EDGE_CURVE('',#164,#164,#186,.T.);
#131=EDGE_CURVE('',#165,#165,#187,.T.);
#132=EDGE_CURVE('',#166,#166,#188,.T.);
#133=EDGE_CURVE('',#167,#168,#189,.T.);
#134=EDGE_CURVE('',#157,#168,#25,.T.);
#135=EDGE_CURVE('',#156,#167,#26,.T.);
#136=EDGE_CURVE('',#168,#169,#27,.T.);
#137=EDGE_CURVE('',#158,#169,#28,.T.);
#138=EDGE_CURVE('',#170,#169,#190,.T.);
#139=EDGE_CURVE('',#159,#170,#29,.T.);
#140=EDGE_CURVE('',#171,#172,#30,.T.);
#141=EDGE_CURVE('',#160,#171,#31,.T.);
#142=EDGE_CURVE('',#161,#172,#32,.T.);
#143=EDGE_CURVE('',#171,#173,#191,.T.);
#144=EDGE_CURVE('',#162,#173,#33,.T.);
#145=EDGE_CURVE('',#174,#173,#34,.T.);
#146=EDGE_CURVE('',#163,#174,#35,.T.);
#147=EDGE_CURVE('',#167,#170,#36,.T.);
#148=EDGE_CURVE('',#172,#174,#192,.T.);
#149=EDGE_CURVE('',#175,#175,#193,.T.);
#150=EDGE_CURVE('',#176,#176,#194,.T.);
#151=EDGE_CURVE('',#177,#177,#195,.F.);
#152=EDGE_CURVE('',#178,#178,#196,.F.);
#153=EDGE_CURVE('',#179,#179,#197,.F.);
#154=EDGE_CURVE('',#180,#180,#198,.T.);
#155=VERTEX_POINT('',#422);
#156=VERTEX_POINT('',#424);
#157=VERTEX_POINT('',#425);
#158=VERTEX_POINT('',#427);
#159=VERTEX_POINT('',#429);
#160=VERTEX_POINT('',#432);
#161=VERTEX_POINT('',#433);
#162=VERTEX_POINT('',#435);
#163=VERTEX_POINT('',#437);
#164=VERTEX_POINT('',#440);
#165=VERTEX_POINT('',#442);
#166=VERTEX_POINT('',#444);
#167=VERTEX_POINT('',#447);
#168=VERTEX_POINT('',#448);
#169=VERTEX_POINT('',#453);
#170=VERTEX_POINT('',#457);
#171=VERTEX_POINT('',#461);
#172=VERTEX_POINT('',#462);
#173=VERTEX_POINT('',#467);
#174=VERTEX_POINT('',#471);
#175=VERTEX_POINT('',#479);
#176=VERTEX_POINT('',#481);
#177=VERTEX_POINT('',#484);
#178=VERTEX_POINT('',#486);
#179=VERTEX_POINT('',#488);
#180=VERTEX_POINT('',#493);
#181=CIRCLE('',#300,0.004);
#182=CIRCLE('',#301,0.015);
#183=CIRCLE('',#302,0.04);
#184=CIRCLE('',#303,0.015);
#185=CIRCLE('',#304,0.04);
#186=CIRCLE('',#305,0.0016);
#187=CIRCLE('',#306,0.0016);
#188=CIRCLE('',#307,0.055);
#189=CIRCLE('',#309,0.015);
#190=CIRCLE('',#312,0.04);
#191=CIRCLE('',#315,0.015);
#192=CIRCLE('',#319,0.04);
#193=CIRCLE('',#321,0.065);
#194=CIRCLE('',#322,0.065);
#195=CIRCLE('',#324,0.004);
#196=CIRCLE('',#325,0.0016);
#197=CIRCLE('',#326,0.0016);
#198=CIRCLE('',#330,0.055);
#199=EDGE_LOOP('',(#53));
#200=EDGE_LOOP('',(#54,#55,#56,#57));
#201=EDGE_LOOP('',(#58,#59,#60,#61));
#202=EDGE_LOOP('',(#62));
#203=EDGE_LOOP('',(#63));
#204=EDGE_LOOP('',(#64));
#205=EDGE_LOOP('',(#65,#66,#67,#68));
#206=EDGE_LOOP('',(#69,#70,#71,#72));
#207=EDGE_LOOP('',(#73,#74,#75,#76));
#208=EDGE_LOOP('',(#77,#78,#79,#80));
#209=EDGE_LOOP('',(#81,#82,#83,#84));
#210=EDGE_LOOP('',(#85,#86,#87,#88));
#211=EDGE_LOOP('',(#89,#90,#91,#92));
#212=EDGE_LOOP('',(#93,#94,#95,#96));
#213=EDGE_LOOP('',(#97));
#214=EDGE_LOOP('',(#98));
#215=EDGE_LOOP('',(#99));
#216=EDGE_LOOP('',(#100));
#217=EDGE_LOOP('',(#101));
#218=EDGE_LOOP('',(#102,#103,#104,#105));
#219=EDGE_LOOP('',(#106,#107,#108,#109));
#220=EDGE_LOOP('',(#110));
#221=EDGE_LOOP('',(#111));
#222=EDGE_LOOP('',(#112));
#223=EDGE_LOOP('',(#113));
#224=EDGE_LOOP('',(#114));
#225=EDGE_LOOP('',(#115));
#226=EDGE_LOOP('',(#116));
#227=EDGE_LOOP('',(#117));
#228=EDGE_LOOP('',(#118));
#229=EDGE_LOOP('',(#119));
#230=EDGE_LOOP('',(#120));
#231=FACE_BOUND('',#199,.T.);
#232=FACE_BOUND('',#200,.T.);
#233=FACE_BOUND('',#201,.T.);
#234=FACE_BOUND('',#202,.T.);
#235=FACE_BOUND('',#203,.T.);
#236=FACE_BOUND('',#204,.T.);
#237=FACE_BOUND('',#205,.T.);
#238=FACE_BOUND('',#206,.T.);
#239=FACE_BOUND('',#207,.T.);
#240=FACE_BOUND('',#208,.T.);
#241=FACE_BOUND('',#209,.T.);
#242=FACE_BOUND('',#210,.T.);
#243=FACE_BOUND('',#211,.T.);
#244=FACE_BOUND('',#212,.T.);
#245=FACE_BOUND('',#213,.T.);
#246=FACE_BOUND('',#214,.T.);
#247=FACE_BOUND('',#215,.T.);
#248=FACE_BOUND('',#216,.T.);
#249=FACE_BOUND('',#217,.T.);
#250=FACE_BOUND('',#218,.T.);
#251=FACE_BOUND('',#219,.T.);
#252=FACE_BOUND('',#220,.T.);
#253=FACE_BOUND('',#221,.T.);
#254=FACE_BOUND('',#222,.T.);
#255=FACE_BOUND('',#223,.T.);
#256=FACE_BOUND('',#224,.T.);
#257=FACE_BOUND('',#225,.T.);
#258=FACE_BOUND('',#226,.T.);
#259=FACE_BOUND('',#227,.T.);
#260=FACE_BOUND('',#228,.T.);
#261=FACE_BOUND('',#229,.T.);
#262=FACE_BOUND('',#230,.T.);
#263=PLANE('',#299);
#264=PLANE('',#310);
#265=PLANE('',#313);
#266=PLANE('',#316);
#267=PLANE('',#317);
#268=PLANE('',#323);
#269=PLANE('',#331);
#270=ADVANCED_FACE('',(#231,#232,#233,#234,#235,#236),#263,.T.);
#271=ADVANCED_FACE('',(#237),#12,.T.);
#272=ADVANCED_FACE('',(#238),#264,.F.);
#273=ADVANCED_FACE('',(#239),#13,.F.);
#274=ADVANCED_FACE('',(#240),#265,.T.);
#275=ADVANCED_FACE('',(#241),#14,.T.);
#276=ADVANCED_FACE('',(#242),#266,.T.);
#277=ADVANCED_FACE('',(#243),#267,.T.);
#278=ADVANCED_FACE('',(#244),#15,.F.);
#279=ADVANCED_FACE('',(#245,#246),#16,.T.);
#280=ADVANCED_FACE('',(#247,#248,#249,#250,#251,#252),#268,.F.);
#281=ADVANCED_FACE('',(#253,#254),#17,.F.);
#282=ADVANCED_FACE('',(#255,#256),#18,.F.);
#283=ADVANCED_FACE('',(#257,#258),#19,.F.);
#284=ADVANCED_FACE('',(#259,#260),#269,.T.);
#285=ADVANCED_FACE('',(#261,#262),#20,.F.);
#286=CLOSED_SHELL('',(#270,#271,#272,#273,#274,#275,#276,#277,#278,#279,
#280,#281,#282,#283,#284,#285));
#287=STYLED_ITEM('',(#288),#295);
#288=PRESENTATION_STYLE_ASSIGNMENT((#289));
#289=SURFACE_STYLE_USAGE(.BOTH.,#290);
#290=SURFACE_SIDE_STYLE('',(#291));
#291=SURFACE_STYLE_FILL_AREA(#292);
#292=FILL_AREA_STYLE('',(#293));
#293=FILL_AREA_STYLE_COLOUR('',#294);
#294=COLOUR_RGB('',0.615686274509804,0.811764705882353,0.929411764705882);
#295=MANIFOLD_SOLID_BREP('Part 1',#286);
#296=SHAPE_DEFINITION_REPRESENTATION(#502,#297);
#297=SHAPE_REPRESENTATION('Part 1',(#298),#497);
#298=AXIS2_PLACEMENT_3D('',#419,#333,#334);
#299=AXIS2_PLACEMENT_3D('',#420,#335,#336);
#300=AXIS2_PLACEMENT_3D('',#421,#337,#338);
#301=AXIS2_PLACEMENT_3D('',#423,#339,#340);
#302=AXIS2_PLACEMENT_3D('',#428,#342,#343);
#303=AXIS2_PLACEMENT_3D('',#434,#346,#347);
#304=AXIS2_PLACEMENT_3D('',#438,#349,#350);
#305=AXIS2_PLACEMENT_3D('',#439,#351,#352);
#306=AXIS2_PLACEMENT_3D('',#441,#353,#354);
#307=AXIS2_PLACEMENT_3D('',#443,#355,#356);
#308=AXIS2_PLACEMENT_3D('',#445,#357,#358);
#309=AXIS2_PLACEMENT_3D('',#446,#359,#360);
#310=AXIS2_PLACEMENT_3D('',#451,#363,#364);
#311=AXIS2_PLACEMENT_3D('',#455,#367,#368);
#312=AXIS2_PLACEMENT_3D('',#456,#369,#370);
#313=AXIS2_PLACEMENT_3D('',#459,#372,#373);
#314=AXIS2_PLACEMENT_3D('',#465,#377,#378);
#315=AXIS2_PLACEMENT_3D('',#466,#379,#380);
#316=AXIS2_PLACEMENT_3D('',#469,#382,#383);
#317=AXIS2_PLACEMENT_3D('',#473,#386,#387);
#318=AXIS2_PLACEMENT_3D('',#475,#389,#390);
#319=AXIS2_PLACEMENT_3D('',#476,#391,#392);
#320=AXIS2_PLACEMENT_3D('',#477,#393,#394);
#321=AXIS2_PLACEMENT_3D('',#478,#395,#396);
#322=AXIS2_PLACEMENT_3D('',#480,#397,#398);
#323=AXIS2_PLACEMENT_3D('',#482,#399,#400);
#324=AXIS2_PLACEMENT_3D('',#483,#401,#402);
#325=AXIS2_PLACEMENT_3D('',#485,#403,#404);
#326=AXIS2_PLACEMENT_3D('',#487,#405,#406);
#327=AXIS2_PLACEMENT_3D('',#489,#407,#408);
#328=AXIS2_PLACEMENT_3D('',#490,#409,#410);
#329=AXIS2_PLACEMENT_3D('',#491,#411,#412);
#330=AXIS2_PLACEMENT_3D('',#492,#413,#414);
#331=AXIS2_PLACEMENT_3D('',#494,#415,#416);
#332=AXIS2_PLACEMENT_3D('',#495,#417,#418);
#333=DIRECTION('',(0.,0.,1.));
#334=DIRECTION('',(1.,0.,0.));
#335=DIRECTION('',(0.,0.,1.));
#336=DIRECTION('',(1.,0.,0.));
#337=DIRECTION('',(0.,0.,1.));
#338=DIRECTION('',(1.,0.,0.));
#339=DIRECTION('',(0.,0.,1.));
#340=DIRECTION('',(1.,0.,0.));
#341=DIRECTION('',(-1.,0.,0.));
#342=DIRECTION('',(0.,0.,1.));
#343=DIRECTION('',(1.,0.,0.));
#344=DIRECTION('',(0.,1.,0.));
#345=DIRECTION('',(0.,-1.,0.));
#346=DIRECTION('',(0.,0.,1.));
#347=DIRECTION('',(1.,0.,0.));
#348=DIRECTION('',(-1.,0.,0.));
#349=DIRECTION('',(0.,0.,1.));
#350=DIRECTION('',(1.,0.,0.));
#351=DIRECTION('',(0.,0.,1.));
#352=DIRECTION('',(1.,0.,0.));
#353=DIRECTION('',(0.,0.,1.));
#354=DIRECTION('',(1.,0.,0.));
#355=DIRECTION('',(0.,0.,1.));
#356=DIRECTION('',(1.,0.,0.));
#357=DIRECTION('',(0.,0.,-1.));
#358=DIRECTION('',(-1.,0.,0.));
#359=DIRECTION('',(0.,0.,1.));
#360=DIRECTION('',(1.,0.,0.));
#361=DIRECTION('',(0.,0.,-1.));
#362=DIRECTION('',(0.,0.,-1.));
#363=DIRECTION('',(0.,-1.,0.));
#364=DIRECTION('',(0.,0.,-1.));
#365=DIRECTION('',(-1.,0.,0.));
#366=DIRECTION('',(0.,0.,-1.));
#367=DIRECTION('',(0.,0.,-1.));
#368=DIRECTION('',(-1.,0.,0.));
#369=DIRECTION('',(0.,0.,1.));
#370=DIRECTION('',(1.,0.,0.));
#371=DIRECTION('',(0.,0.,-1.));
#372=DIRECTION('',(1.,0.,0.));
#373=DIRECTION('',(0.,0.,-1.));
#374=DIRECTION('',(0.,-1.,0.));
#375=DIRECTION('',(0.,0.,-1.));
#376=DIRECTION('',(0.,0.,-1.));
#377=DIRECTION('',(0.,0.,-1.));
#378=DIRECTION('',(-1.,0.,0.));
#379=DIRECTION('',(0.,0.,1.));
#380=DIRECTION('',(1.,0.,0.));
#381=DIRECTION('',(0.,0.,-1.));
#382=DIRECTION('',(0.,-1.,0.));
#383=DIRECTION('',(0.,0.,-1.));
#384=DIRECTION('',(-1.,0.,0.));
#385=DIRECTION('',(0.,0.,-1.));
#386=DIRECTION('',(-1.,0.,0.));
#387=DIRECTION('',(0.,0.,1.));
#388=DIRECTION('',(0.,1.,0.));
#389=DIRECTION('',(0.,0.,-1.));
#390=DIRECTION('',(-1.,0.,0.));
#391=DIRECTION('',(0.,0.,1.));
#392=DIRECTION('',(1.,0.,0.));
#393=DIRECTION('',(0.,0.,-1.));
#394=DIRECTION('',(-1.,0.,0.));
#395=DIRECTION('',(0.,0.,1.));
#396=DIRECTION('',(1.,0.,0.));
#397=DIRECTION('',(0.,0.,1.));
#398=DIRECTION('',(1.,0.,0.));
#399=DIRECTION('',(0.,0.,1.));
#400=DIRECTION('',(1.,0.,0.));
#401=DIRECTION('',(0.,0.,1.));
#402=DIRECTION('',(1.,0.,0.));
#403=DIRECTION('',(0.,0.,1.));
#404=DIRECTION('',(1.,0.,0.));
#405=DIRECTION('',(0.,0.,1.));
#406=DIRECTION('',(1.,0.,0.));
#407=DIRECTION('',(0.,0.,1.));
#408=DIRECTION('',(1.,0.,0.));
#409=DIRECTION('',(0.,0.,1.));
#410=DIRECTION('',(1.,0.,0.));
#411=DIRECTION('',(0.,0.,-1.));
#412=DIRECTION('',(-1.,0.,0.));
#413=DIRECTION('',(0.,0.,1.));
#414=DIRECTION('',(1.,0.,0.));
#415=DIRECTION('',(0.,0.,1.));
#416=DIRECTION('',(1.,0.,0.));
#417=DIRECTION('',(0.,0.,1.));
#418=DIRECTION('',(1.,0.,0.));
#419=CARTESIAN_POINT('',(0.,0.,0.));
#420=CARTESIAN_POINT('',(0.,0.,0.004));
#421=CARTESIAN_POINT('',(-2.4492935982947E-19,0.,0.004));
#422=CARTESIAN_POINT('',(0.004,0.,0.004));
#423=CARTESIAN_POINT('',(1.32660428766866E-18,-3.7775965859398E-18,0.004));
#424=CARTESIAN_POINT('',(9.18485099360515E-19,0.015,0.004));
#425=CARTESIAN_POINT('',(-0.015,1.83697019872103E-18,0.004));
#426=CARTESIAN_POINT('',(-0.0275,0.,0.004));
#427=CARTESIAN_POINT('',(-0.04,4.89858719658941E-18,0.004));
#428=CARTESIAN_POINT('',(1.22464679914735E-18,5.91874055024832E-18,0.004));
#429=CARTESIAN_POINT('',(2.4492935982947E-18,0.04,0.004));
#430=CARTESIAN_POINT('',(0.,0.0275,0.004));
#431=CARTESIAN_POINT('',(0.,-0.0275,0.004));
#432=CARTESIAN_POINT('',(0.,-0.015,0.004));
#433=CARTESIAN_POINT('',(-7.34788079488412E-18,-0.04,0.004));
#434=CARTESIAN_POINT('',(1.02951455620981E-19,0.,0.004));
#435=CARTESIAN_POINT('',(0.015,0.,0.004));
#436=CARTESIAN_POINT('',(0.0275,0.,0.004));
#437=CARTESIAN_POINT('',(0.04,0.,0.004));
#438=CARTESIAN_POINT('',(5.71822297315857E-18,0.,0.004));
#439=CARTESIAN_POINT('',(5.63539271281653E-20,-0.00635,0.004));
#440=CARTESIAN_POINT('',(0.0016,-0.00635,0.004));
#441=CARTESIAN_POINT('',(-9.79717439317883E-20,0.00635,0.004));
#442=CARTESIAN_POINT('',(0.0016,0.00635,0.004));
#443=CARTESIAN_POINT('',(0.,3.36777869765522E-18,0.004));
#444=CARTESIAN_POINT('',(0.055,3.36777869765522E-18,0.004));
#445=CARTESIAN_POINT('',(1.32660428766866E-18,-3.7775965859398E-18,0.004));
#446=CARTESIAN_POINT('',(1.32660428766866E-18,-3.7775965859398E-18,0.));
#447=CARTESIAN_POINT('',(9.18485099360515E-19,0.015,0.));
#448=CARTESIAN_POINT('',(-0.015,1.83697019872103E-18,0.));
#449=CARTESIAN_POINT('',(-0.015,1.83697019872103E-18,0.004));
#450=CARTESIAN_POINT('',(9.18485099360515E-19,0.015,0.004));
#451=CARTESIAN_POINT('',(-0.0275,0.,0.004));
#452=CARTESIAN_POINT('',(-0.0275,0.,0.));
#453=CARTESIAN_POINT('',(-0.04,4.89858719658941E-18,0.));
#454=CARTESIAN_POINT('',(-0.04,4.89858719658941E-18,0.004));
#455=CARTESIAN_POINT('',(1.22464679914735E-18,5.91874055024832E-18,0.004));
#456=CARTESIAN_POINT('',(1.22464679914735E-18,5.91874055024832E-18,0.));
#457=CARTESIAN_POINT('',(2.4492935982947E-18,0.04,0.));
#458=CARTESIAN_POINT('',(2.4492935982947E-18,0.04,0.004));
#459=CARTESIAN_POINT('',(0.,-0.0275,0.004));
#460=CARTESIAN_POINT('',(0.,-0.0275,0.));
#461=CARTESIAN_POINT('',(0.,-0.015,0.));
#462=CARTESIAN_POINT('',(-7.34788079488412E-18,-0.04,0.));
#463=CARTESIAN_POINT('',(0.,-0.015,0.004));
#464=CARTESIAN_POINT('',(-7.34788079488412E-18,-0.04,0.004));
#465=CARTESIAN_POINT('',(1.02951455620981E-19,0.,0.004));
#466=CARTESIAN_POINT('',(1.02951455620981E-19,0.,0.));
#467=CARTESIAN_POINT('',(0.015,0.,0.));
#468=CARTESIAN_POINT('',(0.015,0.,0.004));
#469=CARTESIAN_POINT('',(0.0275,0.,0.004));
#470=CARTESIAN_POINT('',(0.0275,0.,0.));
#471=CARTESIAN_POINT('',(0.04,0.,0.));
#472=CARTESIAN_POINT('',(0.04,0.,0.004));
#473=CARTESIAN_POINT('',(0.,0.0275,0.004));
#474=CARTESIAN_POINT('',(0.,0.0275,0.));
#475=CARTESIAN_POINT('',(5.71822297315857E-18,0.,0.004));
#476=CARTESIAN_POINT('',(5.71822297315857E-18,0.,0.));
#477=CARTESIAN_POINT('',(0.,3.9801020972289E-18,0.004));
#478=CARTESIAN_POINT('',(0.,3.9801020972289E-18,0.));
#479=CARTESIAN_POINT('',(0.065,3.9801020972289E-18,0.));
#480=CARTESIAN_POINT('',(0.,3.9801020972289E-18,0.019));
#481=CARTESIAN_POINT('',(0.065,3.9801020972289E-18,0.019));
#482=CARTESIAN_POINT('',(0.,0.,0.));
#483=CARTESIAN_POINT('',(-2.4492935982947E-19,0.,0.));
#484=CARTESIAN_POINT('',(0.004,0.,0.));
#485=CARTESIAN_POINT('',(-9.79717439317883E-20,0.00635,0.));
#486=CARTESIAN_POINT('',(0.0016,0.00635,0.));
#487=CARTESIAN_POINT('',(5.63539271281653E-20,-0.00635,0.));
#488=CARTESIAN_POINT('',(0.0016,-0.00635,0.));
#489=CARTESIAN_POINT('',(5.63539271281653E-20,-0.00635,-2.00000000000027E-6));
#490=CARTESIAN_POINT('',(-9.79717439317883E-20,0.00635,-2.00000000000027E-6));
#491=CARTESIAN_POINT('',(0.,3.36777869765522E-18,0.019));
#492=CARTESIAN_POINT('',(0.,3.36777869765522E-18,0.019));
#493=CARTESIAN_POINT('',(0.055,3.36777869765522E-18,0.019));
#494=CARTESIAN_POINT('',(0.,0.,0.019));
#495=CARTESIAN_POINT('',(-2.4492935982947E-19,0.,-2.00000000000027E-6));
#496=MECHANICAL_DESIGN_GEOMETRIC_PRESENTATION_REPRESENTATION('',(#287),
#497);
#497=(
GEOMETRIC_REPRESENTATION_CONTEXT(3)
GLOBAL_UNCERTAINTY_ASSIGNED_CONTEXT((#498))
GLOBAL_UNIT_ASSIGNED_CONTEXT((#501,#500,#499))
REPRESENTATION_CONTEXT('Part 1','TOP_LEVEL_ASSEMBLY_PART')
);
#498=UNCERTAINTY_MEASURE_WITH_UNIT(LENGTH_MEASURE(1.E-8),#501,
'DISTANCE_ACCURACY_VALUE','Maximum Tolerance applied to model');
#499=(
NAMED_UNIT(*)
SI_UNIT($,.STERADIAN.)
SOLID_ANGLE_UNIT()
);
#500=(
NAMED_UNIT(*)
PLANE_ANGLE_UNIT()
SI_UNIT($,.RADIAN.)
);
#501=(
LENGTH_UNIT()
NAMED_UNIT(*)
SI_UNIT($,.METRE.)
);
#502=PRODUCT_DEFINITION_SHAPE('','',#503);
#503=PRODUCT_DEFINITION('','',#505,#504);
#504=PRODUCT_DEFINITION_CONTEXT('',#511,'design');
#505=PRODUCT_DEFINITION_FORMATION_WITH_SPECIFIED_SOURCE('','',#507,
 .NOT_KNOWN.);
#506=PRODUCT_RELATED_PRODUCT_CATEGORY('','',(#507));
#507=PRODUCT('Part 1','Part 1','Part 1',(#509));
#508=PRODUCT_CATEGORY('','');
#509=PRODUCT_CONTEXT('',#511,'mechanical');
#510=APPLICATION_PROTOCOL_DEFINITION('international standard',
'ap242_managed_model_based_3d_engineering',2020,#511);
#511=APPLICATION_CONTEXT('managed model based 3d engineering');
ENDSEC;
END-ISO-10303-21;
